/* XPM */
static char * apple_xpm[] = {
"16 16 123 2",
"  	c None",
". 	c #3E9100",
"+ 	c #378A00",
"@ 	c #A8903A",
"# 	c #4DA705",
"$ 	c #8BC631",
"% 	c #84C329",
"& 	c #50A603",
"* 	c #4FA600",
"= 	c #917927",
"- 	c #5A9D00",
"; 	c #86C818",
"> 	c #9CD144",
", 	c #81BE2B",
"' 	c #307900",
") 	c #408600",
"! 	c #90C442",
"~ 	c #A0D354",
"{ 	c #B3DB6F",
"] 	c #DEF4A3",
"^ 	c #ADAC50",
"/ 	c #B5C379",
"( 	c #CDDAAA",
"_ 	c #809C4A",
": 	c #93C744",
"< 	c #B8E869",
"[ 	c #BFE289",
"} 	c #CAE47E",
"| 	c #82A537",
"1 	c #4D5811",
"2 	c #81A53A",
"3 	c #B5D361",
"4 	c #95BF4F",
"5 	c #709538",
"6 	c #ADE157",
"7 	c #F4FCE3",
"8 	c #E2EFCE",
"9 	c #C6E0A2",
"0 	c #82A84F",
"a 	c #79983D",
"b 	c #99C84B",
"c 	c #AADC54",
"d 	c #98C848",
"e 	c #7AA934",
"f 	c #547627",
"g 	c #B7E761",
"h 	c #DEF7B3",
"i 	c #F7FBEE",
"j 	c #FFFEFF",
"k 	c #F9FBF5",
"l 	c #F6FCE8",
"m 	c #D3FA85",
"n 	c #AFE851",
"o 	c #8FC83E",
"p 	c #7DAC36",
"q 	c #86BB3D",
"r 	c #AFEA54",
"s 	c #C9EF8B",
"t 	c #DEF8B1",
"u 	c #EFF9DE",
"v 	c #EBFAD3",
"w 	c #D0F68F",
"x 	c #B6F258",
"y 	c #A6E34D",
"z 	c #A3CA58",
"A 	c #A6DD53",
"B 	c #B7EB67",
"C 	c #D0F88E",
"D 	c #D5F79A",
"E 	c #C8F282",
"F 	c #BCF269",
"G 	c #A8E64F",
"H 	c #9EDC45",
"I 	c #AE926E",
"J 	c #9ACF4A",
"K 	c #AAE352",
"L 	c #BDF565",
"M 	c #BFF370",
"N 	c #B7F063",
"O 	c #B0EB5A",
"P 	c #A0DD4C",
"Q 	c #90BD3E",
"R 	c #BD9C72",
"S 	c #82B639",
"T 	c #9BD548",
"U 	c #A3E348",
"V 	c #ADEB52",
"W 	c #AAEA4E",
"X 	c #A6E053",
"Y 	c #8BC93C",
"Z 	c #81B733",
"` 	c #D1B698",
" .	c #E4D7BB",
"..	c #68932D",
"+.	c #87C23A",
"@.	c #95D242",
"#.	c #9CDA47",
"$.	c #91CC40",
"%.	c #7EB635",
"&.	c #71AA2A",
"*.	c #D0B79E",
"=.	c #F9ECD5",
"-.	c #608B27",
";.	c #87C039",
">.	c #92CF41",
",.	c #90CD41",
"'.	c #83BB3A",
").	c #79AF33",
"!.	c #7BB038",
"~.	c #7CAF3C",
"{.	c #4F7129",
"].	c #365E11",
"^.	c #6D9E31",
"/.	c #83BB3C",
"(.	c #82BA3C",
"_.	c #7AAF39",
":.	c #5B852B",
"<.	c #1F350A",
"[.	c #0E2B00",
"}.	c #1A3504",
"|.	c #1E370A",
"1.	c #142A03",
"2.	c #091D00",
"                      . +       ",
"              @   # $ % & *     ",
"              =   - ; > , ' )   ",
"      ! ~ { ] ^ / ( _           ",
"    : < [ } | 1 2 3 4 5         ",
"    6 7 8 9 0 a b c d e f       ",
"    g h i j k l m n o p         ",
"  q r s t u v w x y z           ",
"    A B C D E F G H I           ",
"    J K L M N O P Q R           ",
"    S T U V W X Y Z `  .        ",
"    ..+.@.#.#.$.%.&.*.=.        ",
"      -.;.>.,.'.).!.~.{.        ",
"        ].^./.(._.:.<.          ",
"          [.}.|.1.2.            ",
"                                "};
