/* XPM */
static char * block_packet_xpm[] = {
"13 16 149 2",
"  	c None",
". 	c #BAB3B6",
"+ 	c #BEA3A5",
"@ 	c #B3B1B3",
"# 	c #C3BBBE",
"$ 	c #DD8A88",
"% 	c #D16766",
"& 	c #C06868",
"* 	c #B6AFB2",
"= 	c #E0DEDE",
"- 	c #DDC3C2",
"; 	c #F1C2C1",
"> 	c #E6A09F",
", 	c #D67776",
"' 	c #BF5B5A",
") 	c #AE5252",
"! 	c #B4898A",
"~ 	c #AEADB0",
"{ 	c #E4D2D2",
"] 	c #E49B9A",
"^ 	c #E8A6A5",
"/ 	c #F3D1D1",
"( 	c #E7A5A5",
"_ 	c #D57878",
": 	c #BD5958",
"< 	c #AD4949",
"[ 	c #A03E3D",
"} 	c #933A39",
"| 	c #974444",
"1 	c #A7A0A3",
"2 	c #D7BBBC",
"3 	c #DF8482",
"4 	c #E69F9E",
"5 	c #F2D3D3",
"6 	c #EFDBDB",
"7 	c #DB8584",
"8 	c #C6605F",
"9 	c #B55151",
"0 	c #B6A3A3",
"a 	c #9D3D3C",
"b 	c #8C2424",
"c 	c #740B0B",
"d 	c #9F9193",
"e 	c #CFB2B3",
"f 	c #DA7A78",
"g 	c #DD8786",
"h 	c #EDDFDF",
"i 	c #EAEAEA",
"j 	c #D3A9A9",
"k 	c #AD3B39",
"l 	c #ACA0A0",
"m 	c #9C9D9D",
"n 	c #804F4F",
"o 	c #7C1212",
"p 	c #700D0D",
"q 	c #A09295",
"r 	c #CAAFB0",
"s 	c #D77372",
"t 	c #D47775",
"u 	c #C35150",
"v 	c #DAC8C7",
"w 	c #D6D8D8",
"x 	c #B2B4B4",
"y 	c #999A9A",
"z 	c #855E5E",
"A 	c #861313",
"B 	c #8C2021",
"C 	c #7F1313",
"D 	c #A3999C",
"E 	c #C2ADB0",
"F 	c #D26C6A",
"G 	c #CC6A69",
"H 	c #A7211F",
"I 	c #9A0B0A",
"J 	c #D3CFCF",
"K 	c #ABABAB",
"L 	c #8B7373",
"M 	c #921010",
"N 	c #991919",
"O 	c #A02728",
"P 	c #991E1E",
"Q 	c #A6A7AC",
"R 	c #B7B1B5",
"S 	c #C64F4C",
"T 	c #B54745",
"U 	c #A21E1C",
"V 	c #CFC2C2",
"W 	c #C1C2C2",
"X 	c #9FA0A0",
"Y 	c #8C8D8D",
"Z 	c #9D6969",
"` 	c #B01D1D",
" .	c #B22424",
"..	c #AF3D3D",
"+.	c #B96B69",
"@.	c #AC3C3A",
"#.	c #AB9E9E",
"$.	c #ABADAD",
"%.	c #895D5D",
"&.	c #8C1111",
"*.	c #9A8B8B",
"=.	c #B7B8B8",
"-.	c #C47878",
";.	c #BE1919",
">.	c #C69293",
",.	c #B6A2A5",
"'.	c #A22F2E",
").	c #9C5655",
"!.	c #825959",
"~.	c #850C0B",
"{.	c #96100F",
"].	c #AB1615",
"^.	c #C4A1A1",
"/.	c #B71E1E",
"(.	c #CD1818",
"_.	c #B9AEAE",
":.	c #A85454",
"<.	c #982928",
"[.	c #8B1313",
"}.	c #890E0E",
"|.	c #9B0F0E",
"1.	c #B6100F",
"2.	c #D10B0B",
"3.	c #CF1314",
"4.	c #C67E7F",
"5.	c #B5B2B8",
"6.	c #A64343",
"7.	c #98292A",
"8.	c #901515",
"9.	c #A01312",
"0.	c #BA1415",
"a.	c #D01818",
"b.	c #D23E3F",
"c.	c #C0BBBC",
"d.	c #BDB1B5",
"e.	c #BF6061",
"f.	c #AF4546",
"g.	c #B53C3D",
"h.	c #CA3F41",
"i.	c #D14E51",
"j.	c #E2E1E2",
"k.	c #C1B6BB",
"l.	c #DD9297",
"m.	c #DF8387",
"n.	c #D28488",
"o.	c #CBC3C6",
"p.	c #AEAEB1",
"q.	c #B5ABAE",
"r.	c #A7ABAE",
"          . + @           ",
"        # $ % & *         ",
"    = - ; > , ' ) ! ~     ",
"{ ] ^ / / ( _ : < [ } | 1 ",
"2 3 4 5 6 7 8 9 0 a b c d ",
"e f g h i j k l m n o p q ",
"r s t u v w x y z A B C D ",
"E F G H I J K L M N O P Q ",
"R S T U V W X Y Z `  ...  ",
"  +.@.#.$.%.&.*.=.-.;.>.  ",
"  ,.'.).!.~.{.].^./.(._.  ",
"    :.<.[.}.|.1.2.3.4.    ",
"    5.6.7.8.9.0.a.b.c.    ",
"      d.e.f.g.h.i.j.      ",
"        k.l.m.n.o.        ",
"          p.q.r.          "};
