/* XPM */
static char * delete_xpm[] = {
"16 16 179 2",
"  	c None",
". 	c #DC9A9A",
"+ 	c #E2A9A9",
"@ 	c #E1A8A8",
"# 	c #D89797",
"$ 	c #DC9191",
"% 	c #ECB1B1",
"& 	c #ECAEAE",
"* 	c #EDB2B2",
"= 	c #EBAFAF",
"- 	c #E6AAAA",
"; 	c #CE8282",
"> 	c #E19090",
", 	c #E58F8F",
"' 	c #E99A9A",
") 	c #ECA3A3",
"! 	c #EDA9A9",
"~ 	c #ECA5A5",
"{ 	c #E99D9D",
"] 	c #E19292",
"^ 	c #CA7979",
"/ 	c #D46E6E",
"( 	c #DF7A7A",
"_ 	c #E58686",
": 	c #E88F8F",
"< 	c #EA9797",
"[ 	c #EB9B9B",
"} 	c #EB9C9C",
"| 	c #EA9999",
"1 	c #E99292",
"2 	c #E38888",
"3 	c #D87E7E",
"4 	c #AC4949",
"5 	c #BA3737",
"6 	c #D86767",
"7 	c #DE7070",
"8 	c #D78585",
"9 	c #E6CCCC",
"0 	c #E29393",
"a 	c #E98E8E",
"b 	c #DF8888",
"c 	c #E5CACA",
"d 	c #D98B8B",
"e 	c #DB7373",
"f 	c #CC6C6C",
"g 	c #750202",
"h 	c #BA2E2E",
"i 	c #D95B5B",
"j 	c #DE6464",
"k 	c #E16969",
"l 	c #E9C7C7",
"m 	c #F6EEEE",
"n 	c #E37979",
"o 	c #E77979",
"p 	c #E4D1D1",
"q 	c #ECCDCD",
"r 	c #E16B6B",
"s 	c #DC6666",
"t 	c #CE5E5E",
"u 	c #860F0F",
"v 	c #B43737",
"w 	c #B20E0E",
"x 	c #D84F4F",
"y 	c #DD5757",
"z 	c #E15F5F",
"A 	c #DF6161",
"B 	c #F5EAEA",
"C 	c #EBC5C5",
"D 	c #D89D9D",
"E 	c #F7ECEC",
"F 	c #E16262",
"G 	c #E36262",
"H 	c #DD5959",
"I 	c #CF5252",
"J 	c #8C0707",
"K 	c #640101",
"L 	c #B43434",
"M 	c #AD0000",
"N 	c #D63B3B",
"O 	c #DD4848",
"P 	c #E15050",
"Q 	c #E55757",
"R 	c #E06464",
"S 	c #FCFDFD",
"T 	c #F8F7F7",
"U 	c #E26262",
"V 	c #E75959",
"W 	c #E35353",
"X 	c #DD4B4B",
"Y 	c #CB3B3B",
"Z 	c #8C0000",
"` 	c #630000",
" .	c #B12F2F",
"..	c #B10000",
"+.	c #C90E0E",
"@.	c #DF3C3C",
"#.	c #E34141",
"$.	c #E74747",
"%.	c #DD5454",
"&.	c #F5F6F6",
"*.	c #FDFFFF",
"=.	c #E25D5D",
"-.	c #E94949",
";.	c #E54343",
">.	c #DE3E3E",
",.	c #BA0E0E",
"'.	c #8D0000",
").	c #610000",
"!.	c #B03434",
"~.	c #B00000",
"{.	c #C70000",
"].	c #D61111",
"^.	c #E53333",
"/.	c #E33232",
"(.	c #EEE4E4",
"_.	c #E98D8D",
":.	c #E9A2A2",
"<.	c #F7EFEF",
"[.	c #E53535",
"}.	c #E73535",
"|.	c #D21010",
"1.	c #B30000",
"2.	c #860000",
"3.	c #5D0000",
"4.	c #AD0808",
"5.	c #D50000",
"6.	c #DD0000",
"7.	c #E0AEAE",
"8.	c #F4C9C9",
"9.	c #F02626",
"0.	c #EE2727",
"a.	c #F4DBDB",
"b.	c #EDBFBF",
"c.	c #DA0000",
"d.	c #CD0000",
"e.	c #AA0000",
"f.	c #770000",
"g.	c #A41616",
"h.	c #BF0000",
"i.	c #D60000",
"j.	c #D52828",
"k.	c #F2ABAB",
"l.	c #E60505",
"m.	c #EF0000",
"n.	c #E61414",
"o.	c #F1AAAA",
"p.	c #D83131",
"q.	c #C20000",
"r.	c #930000",
"s.	c #660000",
"t.	c #A40303",
"u.	c #CA0000",
"v.	c #E00000",
"w.	c #EA0000",
"x.	c #F00000",
"y.	c #F30000",
"z.	c #F40000",
"A.	c #E80000",
"B.	c #CE0000",
"C.	c #A30000",
"D.	c #750000",
"E.	c #A20000",
"F.	c #C50000",
"G.	c #DE0000",
"H.	c #EB0000",
"I.	c #F10000",
"J.	c #E20000",
"K.	c #C80000",
"L.	c #A40000",
"M.	c #7B0000",
"N.	c #940101",
"O.	c #A90000",
"P.	c #BB0000",
"Q.	c #BE0000",
"R.	c #790101",
"S.	c #8B0303",
"T.	c #8F0202",
"U.	c #8B0202",
"V.	c #810303",
"            . + @ #             ",
"        $ % & * * = - ;         ",
"      > , ' ) ! ! ~ { ] ^       ",
"    / ( _ : < [ } | 1 2 3 4     ",
"  5 6 7 8 9 0 a a b c d e f g   ",
"  h i j k l m n o p q r s t u   ",
"v w x y z A B C D E F G H I J K ",
"L M N O P Q R S T U V W X Y Z ` ",
" ...+.@.#.$.%.&.*.=.-.;.>.,.'.).",
"!.~.{.].^./.(._.:.<.[.}.|.1.2.3.",
"  4.{.5.6.7.8.9.0.a.b.c.d.e.f.  ",
"  g.h.i.j.k.l.m.m.n.o.p.q.r.s.  ",
"    t.u.v.w.x.y.z.x.A.B.C.D.    ",
"      E.F.G.H.I.m.J.K.L.M.      ",
"        N.O.P.q.Q.M r.R.        ",
"            S.T.U.V.            "};
