/* XPM */
static char * downarrow_xpm[] = {
"16 14 78 1",
" 	c None",
".	c #D37F7F",
"+	c #D67373",
"@	c #C13F3F",
"#	c #A70000",
"$	c #9C0000",
"%	c #7C0000",
"&	c #DD8787",
"*	c #E27979",
"=	c #D24343",
"-	c #BC0000",
";	c #B10000",
">	c #800000",
",	c #E47979",
"'	c #D64343",
")	c #C40000",
"!	c #BB0000",
"~	c #840000",
"{	c #DF8787",
"]	c #E67979",
"^	c #DB4343",
"/	c #CB0000",
"(	c #C60000",
"_	c #870000",
":	c #E18787",
"<	c #E97979",
"[	c #DF4343",
"}	c #D20000",
"|	c #D00000",
"1	c #8B0000",
"2	c #E28787",
"3	c #EB7979",
"4	c #E34343",
"5	c #D90000",
"6	c #8E0000",
"7	c #E48787",
"8	c #ED7979",
"9	c #E64343",
"0	c #DE0000",
"a	c #E00000",
"b	c #910000",
"c	c #E68686",
"d	c #EE7979",
"e	c #E84343",
"f	c #E80000",
"g	c #920000",
"h	c #BB7B7B",
"i	c #E4AAAA",
"j	c #E69797",
"k	c #EC8F8F",
"l	c #EA0000",
"m	c #F40000",
"n	c #F20000",
"o	c #C00101",
"p	c #D39494",
"q	c #ECA1A1",
"r	c #EC8E8E",
"s	c #E90000",
"t	c #F00000",
"u	c #DF0000",
"v	c #6A0000",
"w	c #DC9595",
"x	c #EA8E8E",
"y	c #E44343",
"z	c #DA0000",
"A	c #E20000",
"B	c #DC0000",
"C	c #E18C8C",
"D	c #E04343",
"E	c #CE0000",
"F	c #E27B7B",
"G	c #C20000",
"H	c #C56464",
"I	c #CE4444",
"J	c #A30000",
"K	c #680000",
"L	c #A73A3A",
"M	c #790000",
"     .+@#$%     ",
"     &*=-;>     ",
"     &,')!~     ",
"     {]^/(_     ",
"     :<[}|1     ",
"     234556     ",
"     7890ab     ",
"     cdeafg     ",
"  hijkdealmnov  ",
"   pqr890stuv   ",
"    wx3yzAB_    ",
"     C<D}E$     ",
"      F^G#      ",
"       IJ       "};
