/* XPM */
static char * ignore_packet_xpm[] = {
"13 16 148 2",
"  	c None",
". 	c #BEBEC1",
"+ 	c #C3C3C6",
"@ 	c #B9B8BB",
"# 	c #C6C5C7",
"$ 	c #E7EAEC",
"% 	c #D7DCE0",
"& 	c #BEC4C9",
"* 	c #BBBBBF",
"= 	c #E2E1E1",
"- 	c #DFDEDE",
"; 	c #FDFDFE",
"> 	c #F2F3F5",
", 	c #DADEE3",
"' 	c #BDC6CC",
") 	c #A4ABB2",
"! 	c #A4A5A8",
"~ 	c #B6B6BA",
"{ 	c #E4E4E5",
"] 	c #F2F3F4",
"^ 	c #F2F4F4",
"/ 	c #FDFDFD",
"( 	c #FCFCFC",
"_ 	c #F1F2F4",
": 	c #D8DDE1",
"< 	c #BDC5CB",
"[ 	c #A8B0B6",
"} 	c #8A9096",
"| 	c #6F7376",
"1 	c #6C6E70",
"2 	c #A0A0A2",
"3 	c #DBDBDD",
"4 	c #EFF2F4",
"5 	c #F8F8F9",
"6 	c #F8F9FA",
"7 	c #F0F2F4",
"8 	c #E4E8EB",
"9 	c #CED4D9",
"0 	c #BCC4CA",
"a 	c #A6AEB3",
"b 	c #898F94",
"c 	c #73777A",
"d 	c #44484B",
"e 	c #909092",
"f 	c #D3D3D5",
"g 	c #ECEFF2",
"h 	c #F5F7F8",
"i 	c #E9EDEF",
"j 	c #DCE1E6",
"k 	c #CED6DC",
"l 	c #B7C1C9",
"m 	c #9FA9B1",
"n 	c #778189",
"o 	c #4A5159",
"p 	c #4C5155",
"q 	c #2B3034",
"r 	c #8D8E90",
"s 	c #CDCED0",
"t 	c #E9ECEF",
"u 	c #F4F6F8",
"v 	c #DCE2E7",
"w 	c #BEC9D2",
"x 	c #A7B5C0",
"y 	c #9DAAB4",
"z 	c #8B959F",
"A 	c #697279",
"B 	c #454B51",
"C 	c #54585C",
"D 	c #373B3E",
"E 	c #959598",
"F 	c #C7C7CA",
"G 	c #E5E9ED",
"H 	c #F2F4F6",
"I 	c #C6D0D7",
"J 	c #AEBBC5",
"K 	c #A5B2BC",
"L 	c #97A3AE",
"M 	c #818C96",
"N 	c #636A70",
"O 	c #4B5054",
"P 	c #64676A",
"Q 	c #4A4D50",
"R 	c #A3A3A5",
"S 	c #B9B9BB",
"T 	c #E1E6EA",
"U 	c #E5E9EC",
"V 	c #C9D2D8",
"W 	c #ADB9C2",
"X 	c #A1ADB8",
"Y 	c #909CA6",
"Z 	c #79828B",
"` 	c #61666B",
" .	c #5D6063",
"..	c #747778",
"+.	c #646669",
"@.	c #B8B6B9",
"#.	c #CED0D3",
"$.	c #DBE1E5",
"%.	c #D1D7DD",
"&.	c #ABB6BF",
"*.	c #9CA7B0",
"=.	c #88929A",
"-.	c #70787F",
";.	c #63676B",
">.	c #737678",
",.	c #828587",
"'.	c #D4DADF",
").	c #D5DBDF",
"!.	c #ABB4BC",
"~.	c #929CA5",
"{.	c #7C848B",
"].	c #676C70",
"^.	c #696B6E",
"/.	c #818385",
"(.	c #8A8C8E",
"_.	c #B9B8B9",
":.	c #CED0D2",
"<.	c #D1D6D9",
"[.	c #B1B8BC",
"}.	c #858C93",
"|.	c #686E73",
"1.	c #5C5F63",
"2.	c #6D6F71",
"3.	c #888A8C",
"4.	c #A0A1A2",
"5.	c #B9B9BC",
"6.	c #D1D3D5",
"7.	c #BDC1C4",
"8.	c #878B8F",
"9.	c #63666A",
"0.	c #626567",
"a.	c #808284",
"b.	c #9EA0A1",
"c.	c #C8C8C9",
"d.	c #C0C0C2",
"e.	c #B6B7B8",
"f.	c #9C9D9E",
"g.	c #9E9FA0",
"h.	c #AEAEAF",
"i.	c #E1E0E1",
"j.	c #C0C0C3",
"k.	c #AAAAAB",
"l.	c #ACADAC",
"m.	c #A5A6A6",
"n.	c #C9C9CB",
"o.	c #B3B2B4",
"p.	c #A8A7A9",
"q.	c #AFAEB0",
"          . + @           ",
"        # $ % & *         ",
"    = - ; > , ' ) ! ~     ",
"{ ] ^ / ( _ : < [ } | 1 2 ",
"3 4 5 6 7 8 9 0 a b c d e ",
"f g h i j k l m n o p q r ",
"s t u v w x y z A B C D E ",
"F G H I J K L M N O P Q R ",
"S T U V W X Y Z `  ...+.@.",
"  #.$.%.&.*.=.-.;.>.,.R   ",
"  . '.).!.~.{.].^./.(._.  ",
"    :.<.[.}.|.1.2.3.4.    ",
"    5.6.7.8.9.0.a.b.c.    ",
"      d.s e.f.g.h.i.      ",
"        j.k.l.m.n.        ",
"          o.p.q.          "};
