/* XPM */
static char * inject_xpm[] = {
"36 20 237 2",
"  	c None",
". 	c #707070",
"+ 	c #ABABAB",
"@ 	c #CCCCCC",
"# 	c #B1B1B1",
"$ 	c #767676",
"% 	c #CACACA",
"& 	c #AFAFAF",
"* 	c #7A7A7A",
"= 	c #575858",
"- 	c #ACADAE",
"; 	c #A9ABAC",
"> 	c #606060",
", 	c #B9B9B9",
"' 	c #BEBEBE",
") 	c #DBDBDB",
"! 	c #C7C8C8",
"~ 	c #959595",
"{ 	c #7E7E7E",
"] 	c #C0C0C0",
"^ 	c #636465",
"/ 	c #88898B",
"( 	c #828688",
"_ 	c #545454",
": 	c #BDBDBD",
"< 	c #CECECE",
"[ 	c #575757",
"} 	c #626261",
"| 	c #DBDBDC",
"1 	c #CCCDCE",
"2 	c #B1B1B2",
"3 	c #9D9D9D",
"4 	c #C7C7C7",
"5 	c #ACACAC",
"6 	c #727373",
"7 	c #5E6062",
"8 	c #515253",
"9 	c #555555",
"0 	c #D5D5D5",
"a 	c #676767",
"b 	c #747575",
"c 	c #6D6F72",
"d 	c #5F6061",
"e 	c #E6E6E6",
"f 	c #C5C6C8",
"g 	c #B5B7B8",
"h 	c #8A8A8A",
"i 	c #A5A5A5",
"j 	c #5C5C5C",
"k 	c #C2C2C2",
"l 	c #D8D8D8",
"m 	c #6D6D6D",
"n 	c #797979",
"o 	c #ABAFB3",
"p 	c #C0CBD2",
"q 	c #7C7F81",
"r 	c #626363",
"s 	c #BEBFBF",
"t 	c #A9ACAF",
"u 	c #9A9D9F",
"v 	c #5A5A5A",
"w 	c #C8C8C8",
"x 	c #D0D0D0",
"y 	c #666666",
"z 	c #A9ADB1",
"A 	c #CDD9E0",
"B 	c #DFE4E9",
"C 	c #B7B6B6",
"D 	c #525252",
"E 	c #4B4D4D",
"F 	c #A6A8A9",
"G 	c #989D9F",
"H 	c #8E9397",
"I 	c #626164",
"J 	c #707072",
"K 	c #585858",
"L 	c #DDE2E9",
"M 	c #C4C3C2",
"N 	c #848484",
"O 	c #6A6A6A",
"P 	c #7B7C7B",
"Q 	c #414244",
"R 	c #808386",
"S 	c #7F8487",
"T 	c #7D8084",
"U 	c #585654",
"V 	c #484649",
"W 	c #100F14",
"X 	c #111015",
"Y 	c #252527",
"Z 	c #8D9093",
"` 	c #C8D3DB",
" .	c #DEE3E8",
"..	c #808080",
"+.	c #757575",
"@.	c #D4D4D4",
"#.	c #A2A2A2",
"$.	c #474647",
"%.	c #484B4D",
"&.	c #626667",
"*.	c #686B6D",
"=.	c #6A6C6D",
"-.	c #8FA5B4",
";.	c #272E36",
">.	c #161418",
",.	c #111116",
"'.	c #15151B",
").	c #56585E",
"!.	c #B8BCC0",
"~.	c #BEBDBD",
"{.	c #E0E0E0",
"].	c #999999",
"^.	c #434343",
"/.	c #464849",
"(.	c #4D4D4E",
"_.	c #565757",
":.	c #A8BFCC",
"<.	c #A6D4F1",
"[.	c #79BCEA",
"}.	c #222D3B",
"|.	c #141419",
"1.	c #3A3A40",
"2.	c #353339",
"3.	c #605E61",
"4.	c #6F6F6F",
"5.	c #696969",
"6.	c #989898",
"7.	c #646667",
"8.	c #9FB9C9",
"9.	c #B8DCF4",
"0.	c #C2E3F7",
"a.	c #92CFF3",
"b.	c #57A6DC",
"c.	c #374B61",
"d.	c #312F33",
"e.	c #616065",
"f.	c #4E4D53",
"g.	c #302F33",
"h.	c #D3D3D2",
"i.	c #444444",
"j.	c #565656",
"k.	c #93B0C3",
"l.	c #B3D9F1",
"m.	c #D0EAFB",
"n.	c #BFE4F8",
"o.	c #A5DFF7",
"p.	c #70C8EF",
"q.	c #3993D5",
"r.	c #697889",
"s.	c #4A484D",
"t.	c #26252A",
"u.	c #1E1D23",
"v.	c #929291",
"w.	c #92AEBF",
"x.	c #9ACDED",
"y.	c #BFE3FA",
"z.	c #C6E6FC",
"A.	c #A7DEF7",
"B.	c #89DAF5",
"C.	c #72D8F3",
"D.	c #3CAEE8",
"E.	c #238BDD",
"F.	c #213245",
"G.	c #272529",
"H.	c #656466",
"I.	c #7D97A8",
"J.	c #7AB5DB",
"K.	c #94CEF4",
"L.	c #A0D7FB",
"M.	c #96D3F9",
"N.	c #68BFEF",
"O.	c #50B8EB",
"P.	c #47BFEC",
"Q.	c #2EADE7",
"R.	c #1783D7",
"S.	c #1072BF",
"T.	c #5A5A5C",
"U.	c #413D3B",
"V.	c #638DA9",
"W.	c #70ACD5",
"X.	c #75BDEE",
"Y.	c #6DBDF5",
"Z.	c #5DB6F3",
"`.	c #44A7E7",
" +	c #37A8E7",
".+	c #2CA9E6",
"++	c #1A93DC",
"@+	c #0373CC",
"#+	c #597F9E",
"$+	c #537B93",
"%+	c #5B95BE",
"&+	c #5BA5D9",
"*+	c #56ACEA",
"=+	c #43A2E9",
"-+	c #3095E1",
";+	c #2798E1",
">+	c #1994DC",
",+	c #0C76CA",
"'+	c #587F9D",
")+	c #39322D",
"!+	c #37393C",
"~+	c #456881",
"{+	c #448ABC",
"]+	c #3D91CF",
"^+	c #2C89D5",
"/+	c #2186D7",
"(+	c #1782D5",
"_+	c #0C74C8",
":+	c #4B7697",
"<+	c #353331",
"[+	c #696C6E",
"}+	c #595B5C",
"|+	c #474849",
"1+	c #3C5D76",
"2+	c #236EAC",
"3+	c #1A71B8",
"4+	c #1271C0",
"5+	c #016ABE",
"6+	c #587D9B",
"7+	c #31302E",
"8+	c #6F7373",
"9+	c #818386",
"0+	c #A3A3A3",
"a+	c #6B6B6B",
"b+	c #43403D",
"c+	c #466780",
"d+	c #326E9E",
"e+	c #2C6DA4",
"f+	c #617D93",
"g+	c #2F2A26",
"h+	c #9B9C9C",
"i+	c #838383",
"j+	c #2E2E2E",
"k+	c #312D2B",
"l+	c #5A5550",
"m+	c #5C5651",
"n+	c #2A2623",
"                                        . + @ # $ % & * = - ;           ",
"                                      > , . ' ) ! ~ { ] , ^ / (         ",
"                                    _ : < [ } | 1 2 3 4 # 5 6 7 8       ",
"                                  9 # 0 a b c d e f g h i               ",
"                                j k l m n o p q r s t u                 ",
"                              v w x y n z A B C D E F G H               ",
"                            9 I J K 6 o A L M N O P Q R S T             ",
"                          U V W X Y Z `  .M ..+.@.#.$.%.&.*.=.          ",
"                        K -.;.>.,.'.).!.~.N +.{.].^.    /./.(.          ",
"                      _.:.<.[.}.|.1.2.3.4.5.0 6.^.                      ",
"                    7.8.9.0.a.b.c.d.e.f.g.h.3 i.                        ",
"                  j.k.l.m.n.o.p.q.r.s.t.u.v.i.                          ",
"                9 w.x.y.z.A.B.C.D.E.F.G.H.i.                            ",
"                I.J.K.L.M.N.O.P.Q.R.S.T.U.                              ",
"                V.W.X.Y.Z.`. +.+++@+#+U.                                ",
"                $+%+&+*+=+-+;+>+,+'+)+                                  ",
"                !+~+{+]+^+/+(+_+:+<+                                    ",
"              [+}+|+1+2+3+4+5+6+7+                                      ",
"            8+9+0+a+b+c+d+e+f+g+                                        ",
"            }+h+& i+j+k+l+m+n+                                          "};
