/* XPM */
static char * modify_packet_xpm[] = {
"13 16 150 2",
"  	c None",
". 	c #B9B3B3",
"+ 	c #B3ADA4",
"@ 	c #B1B1B1",
"# 	c #C1BBBB",
"$ 	c #EC958C",
"% 	c #A08D60",
"& 	c #77A26A",
"* 	c #AFB3AF",
"= 	c #DCDBDB",
"- 	c #DDC9C6",
"; 	c #F9D3C9",
"> 	c #F3A195",
", 	c #AA9867",
"' 	c #62994B",
") 	c #61924F",
"! 	c #92A78C",
"~ 	c #ADAEAD",
"{ 	c #E0D4D3",
"] 	c #E7ABA8",
"^ 	c #EBA49E",
"/ 	c #F7C9BF",
"( 	c #F8D0C4",
"_ 	c #F4A395",
": 	c #AD9E67",
"< 	c #67A34E",
"[ 	c #599243",
"} 	c #4D873D",
"| 	c #56894A",
"1 	c #719A69",
"2 	c #A3A4A2",
"3 	c #D7C3C1",
"4 	c #E48883",
"5 	c #EA847D",
"6 	c #F2A398",
"7 	c #F29F91",
"8 	c #EE7E6F",
"9 	c #9F8B4F",
"0 	c #60A548",
"a 	c #599A44",
"b 	c #4E8C3D",
"c 	c #478137",
"d 	c #477F3B",
"e 	c #979A97",
"f 	c #CFBAB9",
"g 	c #E37570",
"h 	c #E66E63",
"i 	c #EA7566",
"j 	c #E96051",
"k 	c #E74239",
"l 	c #846929",
"m 	c #3A9024",
"n 	c #31851C",
"o 	c #267214",
"p 	c #195F11",
"q 	c #25621A",
"r 	c #989C97",
"s 	c #CCB7B6",
"t 	c #E36E68",
"u 	c #E66659",
"v 	c #E64E41",
"w 	c #DF2018",
"x 	c #DE0B0A",
"y 	c #705311",
"z 	c #298817",
"A 	c #2E891B",
"B 	c #2A7D17",
"C 	c #1D6613",
"D 	c #26631C",
"E 	c #9DA09D",
"F 	c #C3B4B3",
"G 	c #E46F67",
"H 	c #E65D50",
"I 	c #DE1B15",
"J 	c #DD0E0C",
"K 	c #E21213",
"L 	c #75591A",
"M 	c #2F8F22",
"N 	c #359125",
"O 	c #328720",
"P 	c #246E14",
"Q 	c #306B26",
"R 	c #A7A5A8",
"S 	c #B3B4B5",
"T 	c #5B80B7",
"U 	c #46609D",
"V 	c #36528F",
"W 	c #334F87",
"X 	c #3E598B",
"Y 	c #A1A358",
"Z 	c #E1D436",
"` 	c #E3D336",
" .	c #E2C930",
"..	c #D5A421",
"+.	c #C5A043",
"@.	c #5F86B5",
"#.	c #295FAC",
"$.	c #235FA6",
"%.	c #1D5FA0",
"&.	c #2E6CA5",
"*.	c #ADB46A",
"=.	c #FEE146",
"-.	c #FEE045",
";.	c #FCD23A",
">.	c #ECAA27",
",.	c #CCB588",
"'.	c #A0AAB5",
").	c #2C62AE",
"!.	c #2961AB",
"~.	c #1F5FA5",
"{.	c #2D6CAA",
"].	c #ABB46F",
"^.	c #FDE14A",
"/.	c #FEDE49",
"(.	c #FBCF3A",
"_.	c #EEAA20",
":.	c #B6B2A9",
"<.	c #5984B8",
"[.	c #2E62AF",
"}.	c #205BA9",
"|.	c #2764AC",
"1.	c #A8B27A",
"2.	c #FFE152",
"3.	c #FEDB45",
"4.	c #FAC633",
"5.	c #CEB57A",
"6.	c #B1B2B5",
"7.	c #4D7FBF",
"8.	c #3B70B7",
"9.	c #3D76B9",
"0.	c #AEBC90",
"a.	c #FDE667",
"b.	c #FCDA53",
"c.	c #F2CB5A",
"d.	c #BCBCBB",
"e.	c #AEB5BB",
"f.	c #72A3D7",
"g.	c #73A8DA",
"h.	c #C2D5B0",
"i.	c #FBED86",
"j.	c #F6DF83",
"k.	c #DEDEDE",
"l.	c #B2BABF",
"m.	c #95D1E8",
"n.	c #D4EFCA",
"o.	c #EAE3A5",
"p.	c #C9C8C5",
"q.	c #ADABAB",
"r.	c #AFB4B1",
"s.	c #A4A4A9",
"          . + @           ",
"        # $ % & *         ",
"    = - ; > , ' ) ! ~     ",
"{ ] ^ / ( _ : < [ } | 1 2 ",
"3 4 5 6 7 8 9 0 a b c d e ",
"f g h i j k l m n o p q r ",
"s t u v w x y z A B C D E ",
"F G H I J K L M N O P Q R ",
"S T U V W X Y Z `  ...+.  ",
"  @.#.$.%.&.*.=.-.;.>.,.  ",
"  '.).!.~.{.].^./.(._.:.  ",
"    <.[.}.|.1.2.3.4.5.    ",
"    6.7.8.9.0.a.b.c.d.    ",
"      e.f.g.h.i.j.k.      ",
"        l.m.n.o.p.        ",
"          q.r.s.          "};
