/* XPM */
static char * refreshgreen_xpm[] = {
"16 16 89 1",
" 	c None",
".	c #FFFFFF",
"+	c #86D38A",
"@	c #FCFEFC",
"#	c #F9FDF9",
"$	c #318536",
"%	c #B7DCB9",
"&	c #96D899",
"*	c #409545",
"=	c #35803A",
"-	c #38873D",
";	c #28792C",
">	c #319637",
",	c #F1F5F2",
"'	c #DFF4E0",
")	c #40AC46",
"!	c #297C2D",
"~	c #2A7F2F",
"{	c #2B802F",
"]	c #2C8531",
"^	c #2E8932",
"/	c #66BC6A",
"(	c #EBF8EC",
"_	c #64CB6A",
":	c #3EB944",
"<	c #419A46",
"[	c #468F4A",
"}	c #419245",
"|	c #339C39",
"1	c #359F3A",
"2	c #3AAF40",
"3	c #B6DCB7",
"4	c #82D487",
"5	c #69B76C",
"6	c #E6E6E6",
"7	c #F2FAF2",
"8	c #3CB543",
"9	c #3DB844",
"0	c #40B846",
"a	c #5D9760",
"b	c #E8E8E8",
"c	c #E9F7EA",
"d	c #B1CEB3",
"e	c #CDEECE",
"f	c #40BF47",
"g	c #80A182",
"h	c #ECEEEC",
"i	c #FBFCFB",
"j	c #D6ECD7",
"k	c #E9E9E9",
"l	c #ECF8ED",
"m	c #F5FBF6",
"n	c #A7E1AA",
"o	c #57C25C",
"p	c #A3E0A6",
"q	c #F6FCF6",
"r	c #7ED383",
"s	c #42BF48",
"t	c #9BC89D",
"u	c #F3FBF4",
"v	c #81D485",
"w	c #BECCBF",
"x	c #F9FBF9",
"y	c #3BB241",
"z	c #36A13B",
"A	c #5BB55F",
"B	c #79CB7E",
"C	c #76D07A",
"D	c #65CA6A",
"E	c #59C75F",
"F	c #6ECE73",
"G	c #7AB77E",
"H	c #309135",
"I	c #2D8832",
"J	c #297E2E",
"K	c #5BBB60",
"L	c #F2F2F2",
"M	c #36893A",
"N	c #2B762F",
"O	c #2C7830",
"P	c #2D7A31",
"Q	c #367F39",
"R	c #90AA91",
"S	c #CCDECD",
"T	c #B9C7BA",
"U	c #F2F4F2",
"V	c #FBFBFB",
"W	c #8BB58D",
"X	c #EDF1EE",
"..........+.....",
"........@#$%....",
"......&*=-;>,...",
"....')!~{{]^/...",
"...(_:<[}||123..",
"...456..7890ab..",
"..cd....efgh....",
"..i.....jk......",
".......l........",
".....mno.....p..",
"...qrs:t...uvw..",
"..xyzz1ABCDEF...",
"...GHI]]~J>KL...",
"....M!NOPQR.....",
"....S{TUUV......",
".....WX........."};
