/* XPM */
static char * rightarrow_xpm[] = {
"16 16 58 1",
" 	c None",
".	c #82D2FD",
"+	c #7FD0FA",
"@	c #7FD0F9",
"#	c #60B5E4",
"$	c #5BAAD6",
"%	c #5BAAD7",
"&	c #5AABD9",
"*	c #58A6D3",
"=	c #57A6D2",
"-	c #5AA8D4",
";	c #53A4D0",
">	c #52A3CE",
",	c #51A1CD",
"'	c #5BA8D2",
")	c #4F9FC9",
"!	c #4D9DC7",
"~	c #5CABD4",
"{	c #50A7D4",
"]	c #4999C2",
"^	c #4A99C2",
"/	c #4797C1",
"(	c #63B1D9",
"_	c #499CC4",
":	c #4495BD",
"<	c #4596BE",
"[	c #4294BD",
"}	c #4191B8",
"|	c #3F90B9",
"1	c #4196C0",
"2	c #3F90B6",
"3	c #3A8CB2",
"4	c #3C8DB2",
"5	c #3C8FB5",
"6	c #4293B8",
"7	c #3586AC",
"8	c #3787AE",
"9	c #3788AE",
"0	c #4899BE",
"a	c #2F81A6",
"b	c #3184A9",
"c	c #3183A9",
"d	c #4DA0C4",
"e	c #257AA1",
"f	c #297DA3",
"g	c #287CA3",
"h	c #2982AA",
"i	c #46839F",
"j	c #4A859F",
"k	c #4A85A0",
"l	c #5B8C9F",
"m	c #B1AFAE",
"n	c #B6B0AE",
"o	c #B5B0AD",
"p	c #B3AFAD",
"q	c #AEADAD",
"r	c #ADADAD",
"s	c #AEAEAE",
"                ",
"    .+@         ",
"    #$$%        ",
"     &*=-       ",
"      ;>,'      ",
"       ))!~     ",
"       {]^/(    ",
"        _:<[    ",
"        }||1    ",
"       2345     ",
"      6789      ",
"     0abc       ",
"    defgh       ",
"    ijkl        ",
"   mnoopqrrss   ",
"                "};
