/* XPM */
static char * rmulti_xpm[] = {
"16 13 89 1",
" 	c None",
".	c #E0EEFC",
"+	c #B5D4FB",
"@	c #CCE1FC",
"#	c #EFF5FB",
"$	c #D8E8FC",
"%	c #B3D3FB",
"&	c #D6E8FC",
"*	c #DCEAF8",
"=	c #F5F9FD",
"-	c #5096F6",
";	c #5C9DF6",
">	c #E6EFF8",
",	c #E0EDFC",
"'	c #4D95F7",
")	c #6AAAF8",
"!	c #D0E3F4",
"~	c #F1F8FD",
"{	c #5897F6",
"]	c #5F9FF7",
"^	c #DBE9F7",
"/	c #CAE1FA",
"(	c #4B90F7",
"_	c #68A5F8",
":	c #A4C7EE",
"<	c #DFECFB",
"[	c #4F92F7",
"}	c #5E9CF8",
"|	c #C7DEF5",
"1	c #D1E4FB",
"2	c #6FA6F9",
"3	c #B9D3F1",
"4	c #F1F7FD",
"5	c #4F96F7",
"6	c #5A99F8",
"7	c #E0ECF8",
"8	c #E2EEFC",
"9	c #4D91F7",
"0	c #6DA7F7",
"a	c #D4E4F4",
"b	c #F9FBFD",
"c	c #3698F4",
"d	c #298DF3",
"e	c #B7D9F9",
"f	c #BCD8FA",
"g	c #3090F2",
"h	c #7EB2EC",
"i	c #91C1E9",
"j	c #7FB7F7",
"k	c #1F8CF1",
"l	c #6DAEF7",
"m	c #A7CDED",
"n	c #69B0F9",
"o	c #258FF1",
"p	c #98C5F8",
"q	c #AACDEA",
"r	c #81B9F7",
"s	c #2790F1",
"t	c #A0CAFA",
"u	c #A6CCEC",
"v	c #529FF6",
"w	c #1A8AF2",
"x	c #AAD0FA",
"y	c #88BDE6",
"z	c #8ABEF8",
"A	c #86BCF8",
"B	c #68ACF8",
"C	c #2891F2",
"D	c #ACD1FA",
"E	c #8ABEE6",
"F	c #1884F2",
"G	c #80B8F8",
"H	c #A1C9EB",
"I	c #71B1F9",
"J	c #208DF2",
"K	c #A3CBF9",
"L	c #A8CCEA",
"M	c #85BBF7",
"N	c #3296F4",
"O	c #ABD1FB",
"P	c #A5CBEB",
"Q	c #5CA8F6",
"R	c #B4D5FA",
"S	c #75B1E3",
"T	c #BFDAF1",
"U	c #D8E8F6",
"V	c #96C3EA",
"W	c #BFD9F1",
"X	c #DCEBF6",
"      .+@# $%&* ",
"     =-;> ,')!  ",
"    ~{]^ /(_:   ",
"   <[}| 1(23    ",
"  4567 890a     ",
" bcde fgdh      ",
" ijkl mnop      ",
"  qrst uvwx     ",
"   yzoA uBCD    ",
"    ErFG HIJK   ",
"     LMNO PQCR  ",
"      STTU VWWX ",
"                "};
