/* XPM */
static char * rtree_xpm[] = {
"16 15 21 1",
" 	c None",
".	c #23729F",
"+	c #2373A0",
"@	c #22719E",
"#	c #2373A1",
"$	c #1D6086",
"%	c #1A5577",
"&	c #000000",
"*	c #23729E",
"=	c #22709C",
"-	c #2372A0",
";	c #22729F",
">	c #1E648B",
",	c #184E6D",
"'	c #216C98",
")	c #133E57",
"!	c #2374A2",
"~	c #2475A4",
"{	c #1C5C81",
"]	c #23719E",
"^	c #1F668E",
"        ..      ",
"        +@#     ",
"        $.%     ",
"            & + ",
"  .*.        =..",
"  --#        .@;",
"   >,         ; ",
"  &             ",
" .'   )!.       ",
"*@.   ~@.       ",
".@.   {+@       ",
"                ",
"   ].^          ",
"   ...          ",
"    .*          "};
