/* XPM */
static char * send_xpm[] = {
"15 9 79 1",
" 	c None",
".	c #A9E8A2",
"+	c #A2E79B",
"@	c #9EEC95",
"#	c #9AEA96",
"$	c #92E490",
"%	c #6CC47B",
"&	c #6CCD78",
"*	c #6CD373",
"=	c #6DDB6E",
"-	c #71E06C",
";	c #77E46C",
">	c #7AE86C",
",	c #7BE86E",
"'	c #7DE773",
")	c #7BE374",
"!	c #77DF75",
"~	c #74D978",
"{	c #56BB67",
"]	c #56C463",
"^	c #56CD5D",
"/	c #56D658",
"(	c #5BDB56",
"_	c #60E156",
":	c #65E556",
"<	c #66E656",
"[	c #61E255",
"}	c #5DDE55",
"|	c #57D855",
"1	c #55D15A",
"2	c #55C860",
"3	c #51BE62",
"4	c #10A128",
"5	c #10AB22",
"6	c #10B91A",
"7	c #11C512",
"8	c #17CD10",
"9	c #1ED510",
"0	c #25DB10",
"a	c #28DD10",
"b	c #21D811",
"c	c #1BD111",
"d	c #13C910",
"e	c #10BF16",
"f	c #10B21E",
"g	c #13AA26",
"h	c #1BA630",
"i	c #02A017",
"j	c #02AB10",
"k	c #03B909",
"l	c #04C502",
"m	c #0BCE01",
"n	c #14D601",
"o	c #1ADD01",
"p	c #1DDE01",
"q	c #11D600",
"r	c #0ACE00",
"s	c #00C400",
"t	c #00BD02",
"u	c #07B112",
"v	c #069B21",
"w	c #07C10B",
"x	c #07BE0C",
"y	c #08BE0E",
"z	c #08BA10",
"A	c #08B711",
"B	c #09B514",
"C	c #09B216",
"D	c #09AE19",
"E	c #10CD04",
"F	c #0BCF00",
"G	c #08C604",
"H	c #0CAF1B",
"I	c #039622",
"J	c #1AD705",
"K	c #10BD13",
"L	c #07A41E",
"M	c #08A71C",
"N	c #009C1C",
"        .+     ",
"        @#$    ",
"%&*=-;>,')!~   ",
"{]^/(_:<[}|123 ",
"4567890abcdefgh",
"ijklmnopqrstuv ",
"wxyzABCDEFGHI  ",
"        JKL    ",
"        MN     "};
