/* XPM */
static char * smulti_xpm[] = {
"16 13 88 1",
" 	c None",
".	c #9AE181",
"+	c #8BF173",
"@	c #62ED52",
"#	c #8EF176",
"$	c #CDEDBD",
"%	c #78F168",
"&	c #63ED53",
"*	c #A4F189",
"=	c #7FD16C",
"-	c #37E124",
";	c #2ADD18",
">	c #A1F189",
",	c #B2E19E",
"'	c #2FD91E",
")	c #2BD919",
"!	c #E1F5D5",
"~	c #57BA46",
"{	c #34E123",
"]	c #27DD17",
"^	c #76E967",
"/	c #97DD7F",
"(	c #31E11F",
"_	c #2CD91C",
":	c #D9F5C5",
"<	c #66C557",
"[	c #37E527",
"}	c #81ED6D",
"|	c #71D563",
"1	c #2FE11E",
"2	c #28E118",
"3	c #A1ED89",
"4	c #86D171",
"5	c #37E125",
"6	c #28DD18",
"7	c #A4F18E",
"8	c #A4E18B",
"9	c #2DE11D",
"0	c #29DD18",
"a	c #D1F5C1",
"b	c #42B22E",
"c	c #23CD0B",
"d	c #26CD0D",
"e	c #69E959",
"f	c #69E556",
"g	c #22CD0B",
"h	c #28D10F",
"i	c #E9F5E5",
"j	c #52E13E",
"k	c #23C90A",
"l	c #3CE524",
"m	c #5DB648",
"n	c #3CDD25",
"o	c #21C908",
"p	c #44DD2E",
"q	c #4FA839",
"r	c #5DE94A",
"s	c #1FC907",
"t	c #2FDD19",
"u	c #5CB247",
"v	c #58E944",
"w	c #46DD30",
"x	c #5DAB4A",
"y	c #5FE94C",
"z	c #24C90B",
"A	c #39E123",
"B	c #47E532",
"C	c #4AE135",
"D	c #4B9E34",
"E	c #59E545",
"F	c #3DE527",
"G	c #59AF44",
"H	c #44E130",
"I	c #1EC906",
"J	c #4C9E35",
"K	c #64E952",
"L	c #35D91E",
"M	c #5CAF47",
"N	c #5FED4C",
"O	c #29D10E",
"P	c #48DD32",
"Q	c #9ED97F",
"R	c #6CC55C",
"S	c #6CC55D",
"T	c #53AB3D",
"U	c #91D978",
"V	c #6DC55D",
"W	c #409429",
" .+@# $%&*      ",
"  =-;> ,')!     ",
"   ~{]^ /(_:    ",
"    <[]} |123   ",
"     4567 890a  ",
"      bcde fghi ",
"      jklm nopq ",
"     rstu vkwx  ",
"    yzAu BkCD   ",
"   EoFG HIwJ    ",
"  KcLM NOPx     ",
" QRST URVW      ",
"                "};
