/* XPM */
static char * stree_xpm[] = {
"16 15 20 1",
" 	c None",
".	c #239E3C",
"+	c #21993A",
"@	c #1D8833",
"#	c #239E3B",
"$	c #1A792E",
"%	c #000000",
"&	c #239D3B",
"*	c #22993A",
"=	c #229D3C",
"-	c #229E3C",
";	c #209036",
">	c #166627",
",	c #229E3B",
"'	c #1E8D34",
")	c #114F1D",
"!	c #239D3C",
"~	c #229D3B",
"{	c #1A762D",
"]	c #1C8030",
"        ..      ",
"        +..     ",
"        @#$     ",
"            % # ",
"  ..&        *..",
"  .=#        ..-",
"   ;>         , ",
"  %             ",
" .'   )!.       ",
"&..   .~.       ",
".~.   {,,       ",
"      %         ",
"   #.]          ",
"   ...          ",
"    .#          "};
