/* XPM */
static char * uparrow_xpm[] = {
"16 14 92 2",
"  	c None",
". 	c #1C6FB3",
"+ 	c #2392D8",
"@ 	c #0058AD",
"# 	c #55B1E3",
"$ 	c #199AE1",
"% 	c #0072D0",
"& 	c #0059A8",
"* 	c #6FB6E2",
"= 	c #50B5E9",
"- 	c #129FE4",
"; 	c #0080DC",
"> 	c #007BD4",
", 	c #7CB8E1",
"' 	c #74BFEB",
") 	c #4EB7EA",
"! 	c #0DA2E6",
"~ 	c #0086E0",
"{ 	c #008DE2",
"] 	c #007ED4",
"^ 	c #90C8ED",
"/ 	c #72C0EC",
"( 	c #4CB9EB",
"_ 	c #0AA4E7",
": 	c #008BE2",
"< 	c #0095E6",
"[ 	c #0097E7",
"} 	c #007ED3",
"| 	c #AACFEA",
"1 	c #94CAED",
"2 	c #72C0EB",
"3 	c #4BBAEC",
"4 	c #08A5E8",
"5 	c #008EE4",
"6 	c #0094E5",
"7 	c #0095E7",
"8 	c #008EE8",
"9 	c #006ACA",
"0 	c #295985",
"a 	c #1C507F",
"b 	c #71BDE9",
"c 	c #4BBAEB",
"d 	c #008EE3",
"e 	c #005A9E",
"f 	c #004A8A",
"g 	c #00478C",
"h 	c #6EB7E4",
"i 	c #09A4E7",
"j 	c #008CE3",
"k 	c #0088DF",
"l 	c #004989",
"m 	c #6EB7E3",
"n 	c #4DB8EA",
"o 	c #0BA3E6",
"p 	c #0088E1",
"q 	c #0084DB",
"r 	c #004787",
"s 	c #6FB6E3",
"t 	c #4FB6EA",
"u 	c #10A0E4",
"v 	c #0083DE",
"w 	c #007ED7",
"x 	c #004485",
"y 	c #70B5E2",
"z 	c #51B4EA",
"A 	c #169CE3",
"B 	c #007CDB",
"C 	c #0077D1",
"D 	c #004281",
"E 	c #71B4E1",
"F 	c #54B3E8",
"G 	c #1B98E1",
"H 	c #0076D7",
"I 	c #0070CC",
"J 	c #003F7E",
"K 	c #71B3E1",
"L 	c #55B1E7",
"M 	c #1F94DF",
"N 	c #006FD4",
"O 	c #0069C5",
"P 	c #003C7B",
"Q 	c #78B2DB",
"R 	c #5FADDE",
"S 	c #2A89CE",
"T 	c #005EBD",
"U 	c #0058B1",
"V 	c #003875",
"W 	c #235787",
"X 	c #1B5082",
"Y 	c #0D457B",
"Z 	c #003673",
"` 	c #003572",
"              $ %               ",
"            = - ; >             ",
"          ' ) ! ~ { ]           ",
"        ^ / ( _ : < [ }         ",
"      | 1 2 3 4 5 6 7 8 9       ",
"    | 0 a b c 4 d { e f g 9     ",
"          h ( i j k l           ",
"          m n o p q r           ",
"          s t u v w x           ",
"          y z A B C D           ",
"          E F G H I J           ",
"          K L M N O P           ",
"          Q R S T U V           ",
"          W X Y Z ` `           "};
