/* XPM */
static char * add_xpm[] = {
"16 16 89 1",
" 	c None",
".	c #AEEF82",
"+	c #BFF398",
"@	c #BEF298",
"#	c #9EE96E",
"$	c #A5ED73",
"%	c #B5F086",
"&	c #B4F185",
"*	c #96E663",
"=	c #95EA5C",
"-	c #A3EE69",
";	c #A3EE68",
">	c #87E14F",
",	c #85E546",
"'	c #90E94D",
")	c #90E94C",
"!	c #78DC3D",
"~	c #79DE3A",
"{	c #82E23E",
"]	c #82E13E",
"^	c #6DD434",
"/	c #79D449",
"(	c #77D63F",
"_	c #7CD944",
":	c #79D93E",
"<	c #73D834",
"[	c #72D82F",
"}	c #73D92F",
"|	c #75D837",
"1	c #78D83D",
"2	c #77D63D",
"3	c #70D237",
"4	c #6DCA41",
"5	c #60C72E",
"6	c #5DC81F",
"7	c #60CB21",
"8	c #62CD21",
"9	c #63CF21",
"0	c #64D021",
"a	c #62CE21",
"b	c #61CC21",
"c	c #5FCA21",
"d	c #5BC71F",
"e	c #56BD2B",
"f	c #3EB60B",
"g	c #3EB900",
"h	c #41BB00",
"i	c #44BE00",
"j	c #46C000",
"k	c #48C102",
"l	c #49C103",
"m	c #48C103",
"n	c #47C102",
"o	c #45BF00",
"p	c #43BD00",
"q	c #3FBA00",
"r	c #3DB800",
"s	c #37AC0B",
"t	c #2DA010",
"u	c #32A411",
"v	c #34A611",
"w	c #35A812",
"x	c #35A712",
"y	c #3CB705",
"z	c #40BA00",
"A	c #40B900",
"B	c #38B106",
"C	c #35A811",
"D	c #34A711",
"E	c #33A312",
"F	c #29990F",
"G	c #2FAB02",
"H	c #39B100",
"I	c #39B200",
"J	c #279F02",
"K	c #2DA407",
"L	c #32A900",
"M	c #269908",
"N	c #2C9D0C",
"O	c #2CA200",
"P	c #2BA100",
"Q	c #26920C",
"R	c #2A9610",
"S	c #249A00",
"T	c #239900",
"U	c #268C10",
"V	c #1F8112",
"W	c #228610",
"X	c #1B7910",
"                ",
"      .+@#      ",
"      $%&*      ",
"      =-;>      ",
"      ,')!      ",
"      ~{]^      ",
" /(_:<[}}[|1234 ",
" 567899099abcde ",
" fghijklmnopqrs ",
" tuvwxyzABCDvEF ",
"      GHIJ      ",
"      KLLM      ",
"      NOPQ      ",
"      RSTU      ",
"      VWWX      ",
"                "};
