/* XPM */
static char * exe_icon_xpm[] = {
"16 16 177 2",
"  	c None",
". 	c #DCDCDD",
"+ 	c #E6E7E8",
"@ 	c #E1E3E5",
"# 	c #DCDEE2",
"$ 	c #D6D9DE",
"% 	c #D0D4D9",
"& 	c #CCD0D7",
"* 	c #C9CED4",
"= 	c #C7CCD3",
"- 	c #C7CCD4",
"; 	c #C9CED5",
"> 	c #CCD1D7",
", 	c #D0D2D8",
"' 	c #C9CCD3",
") 	c #CDCFD5",
"! 	c #C9CBCF",
"~ 	c #D8D9DB",
"{ 	c #D9DADB",
"] 	c #D9DBDC",
"^ 	c #D8DADB",
"/ 	c #D9DADC",
"( 	c #D9D9DA",
"_ 	c #BEC1C6",
": 	c #E2E2E5",
"< 	c #97B1CC",
"[ 	c #9DB7CE",
"} 	c #9EB9CD",
"| 	c #9EBBCC",
"1 	c #9FBDCA",
"2 	c #A0BFC9",
"3 	c #9CBFC5",
"4 	c #FAFBFC",
"5 	c #F9F9F9",
"6 	c #FBFBFC",
"7 	c #FFFDFB",
"8 	c #FAF9F9",
"9 	c #C8CACE",
"0 	c #E6E5E6",
"a 	c #4578A3",
"b 	c #5184A7",
"c 	c #5388A4",
"d 	c #548CA2",
"e 	c #55919E",
"f 	c #57949C",
"g 	c #4F9393",
"h 	c #F2F1F3",
"i 	c #F8F8F8",
"j 	c #F7F7F7",
"k 	c #F7F7F9",
"l 	c #5983AF",
"m 	c #BACAD6",
"n 	c #C9CCCF",
"o 	c #E8E7E8",
"p 	c #5184A5",
"q 	c #5B8FA7",
"r 	c #5D93A6",
"s 	c #6098A3",
"t 	c #5E9AA0",
"u 	c #5E9D9B",
"v 	c #589D94",
"w 	c #F1F0F2",
"x 	c #F3F3F3",
"y 	c #F4F4F4",
"z 	c #F6F5F7",
"A 	c #6497AA",
"B 	c #BDD1D3",
"C 	c #CBCDD0",
"D 	c #DBDBDF",
"E 	c #6093AA",
"F 	c #5A92A3",
"G 	c #4E8E98",
"H 	c #488D91",
"I 	c #49918D",
"J 	c #4B958A",
"K 	c #459582",
"L 	c #F0F0F1",
"M 	c #F2F2F2",
"N 	c #F1F1F1",
"O 	c #F3F3F6",
"P 	c #6CA8A2",
"Q 	c #BFD4CF",
"R 	c #B8BDC5",
"S 	c #DCDCE1",
"T 	c #438394",
"U 	c #458993",
"V 	c #488F90",
"W 	c #4A938D",
"X 	c #4D978A",
"Y 	c #509B88",
"Z 	c #499B7E",
"` 	c #EEEEF0",
" .	c #F1F1F3",
"..	c #73B499",
"+.	c #BFD5C9",
"@.	c #B8BDC4",
"#.	c #DCDBE0",
"$.	c #3C858C",
"%.	c #49908F",
"&.	c #4B948C",
"*.	c #4E988A",
"=.	c #509C87",
"-.	c #53A084",
";.	c #4DA07A",
">.	c #ECECED",
",.	c #F0F0F0",
"'.	c #EFEFEF",
").	c #EDECEF",
"!.	c #77BD85",
"~.	c #BED5C0",
"{.	c #B7BCC4",
"].	c #DBDADF",
"^.	c #3F8B88",
"/.	c #4C958C",
"(.	c #4F9989",
"_.	c #519D86",
":.	c #54A183",
"<.	c #57A47F",
"[.	c #52A575",
"}.	c #EAEAEB",
"|.	c #EEEEEE",
"1.	c #E8E5E9",
"2.	c #B6BCC3",
"3.	c #D8D6DD",
"4.	c #4A9489",
"5.	c #4F9B88",
"6.	c #529E85",
"7.	c #55A282",
"8.	c #58A67E",
"9.	c #5BA97B",
"0.	c #55AA70",
"a.	c #E6E5E7",
"b.	c #E8E8E8",
"c.	c #E7E7E7",
"d.	c #E5E5E5",
"e.	c #EBEBEB",
"f.	c #EAEAEA",
"g.	c #E9E9E8",
"h.	c #B6BAC2",
"i.	c #D6D4DA",
"j.	c #4C9A85",
"k.	c #55A086",
"l.	c #55A380",
"m.	c #58A67C",
"n.	c #5BAA79",
"o.	c #5EAD75",
"p.	c #59AE6C",
"q.	c #E2E2E4",
"r.	c #E4E4E4",
"s.	c #EAEAE9",
"t.	c #B6BBC2",
"u.	c #D3D2D9",
"v.	c #5DA089",
"w.	c #66A78A",
"x.	c #69A987",
"y.	c #6BAC84",
"z.	c #6DAF81",
"A.	c #6EB27F",
"B.	c #6AB175",
"C.	c #DEDFE0",
"D.	c #E6E6E6",
"E.	c #E9E9E9",
"F.	c #EEEEED",
"G.	c #B6BBC3",
"H.	c #C6CBD2",
"I.	c #E0E0E5",
"J.	c #DEDFE4",
"K.	c #DFDFE4",
"L.	c #DFDEE5",
"M.	c #DCDFE3",
"N.	c #DEE0E4",
"O.	c #DFE1E6",
"P.	c #E0E3E7",
"Q.	c #E2E5E9",
"R.	c #E3E5E9",
"S.	c #E2E4E8",
"T.	c #B5BBC4",
"                                ",
". + @ # $ % & * = - ; > , ' )   ",
"! ~ ~ ~ { { { ] { { { ^ ^ / ( _ ",
": < [ } | 1 2 3 4 5 5 5 6 7 8 9 ",
"0 a b c d e f g h i i j k l m n ",
"o p q r s t u v w x y x z A B C ",
"D E F G H I J K L x M N O P Q R ",
"S T U V W X Y Z ` y y x  ...+.@.",
"#.$.%.&.*.=.-.;.>.N ,.'.).!.~.{.",
"].^./.(._.:.<.[.}.M ,.|.'.1.o 2.",
"3.4.5.6.7.8.9.0.a.b.c.d.e.f.g.h.",
"i.j.k.l.m.n.o.p.q.r.d.r.e.f.s.t.",
"u.v.w.x.y.z.A.B.C.D.b.E.|.|.F.G.",
"H.I.J.K.J.K.J.L.M.N.O.P.Q.R.S.T.",
"                                ",
"                                "};
