/* XPM */
static char * inject_xpm[] = {
"16 16 58 1",
" 	c None",
".	c #7D7D7D",
"+	c #DCDCDD",
"@	c #717170",
"#	c #B1B0AF",
"$	c #969696",
"%	c #828283",
"&	c #D2D4D5",
"*	c #797A7A",
"=	c #929292",
"-	c #C4C4C4",
";	c #A5A5A5",
">	c #9D9D9D",
",	c #87898A",
"'	c #A9A9A9",
")	c #959798",
"!	c #818283",
"~	c #CBD4DB",
"{	c #9B9B9D",
"]	c #2F2D31",
"^	c #3E3E41",
"/	c #BCC2C7",
"(	c #B3B4B5",
"_	c #959595",
":	c #6F7375",
"<	c #9AC5DE",
"[	c #2F4659",
"}	c #312F33",
"|	c #646367",
"1	c #9E9E9E",
"2	c #9C9C9C",
"3	c #687378",
"4	c #AACFE7",
"5	c #C1E7FB",
"6	c #6AC7F6",
"7	c #42617E",
"8	c #323036",
"9	c #8E8E8E",
"0	c #78A7C5",
"a	c #96D2FB",
"b	c #73C4F2",
"c	c #47BEEC",
"d	c #1882D0",
"e	c #435260",
"f	c #5588AA",
"g	c #53A6E3",
"h	c #3298E2",
"i	c #1288DA",
"j	c #426D8F",
"k	c #6E7071",
"l	c #575A5C",
"m	c #326995",
"n	c #2474B7",
"o	c #3C6587",
"p	c #696A6B",
"q	c #717070",
"r	c #1C1F21",
"s	c #2F3B45",
"                ",
"            .+  ",
"         @# $%& ",
"         *=-;>, ",
"         '*)-   ",
"        -!~{=#  ",
"       ]^/(_*@  ",
"     :<[}|12    ",
"    3456789     ",
"    0abcde      ",
"    fghij       ",
"   klmno        ",
"   pqrs         ",
"  r             ",
" r              ",
"r               "};
