/* XPM */
static char * inspectorgadget_xpm[] = {
"16 16 137 2",
"  	c None",
". 	c #6F7073",
"+ 	c #5B5D67",
"@ 	c #40494E",
"# 	c #55595C",
"$ 	c #4D4C52",
"% 	c #66666B",
"& 	c #505659",
"* 	c #6C6E71",
"= 	c #5F6065",
"- 	c #86888D",
"; 	c #2A3236",
"> 	c #4B4E4F",
", 	c #858489",
"' 	c #BEBEC4",
") 	c #ACAEB4",
"! 	c #31383C",
"~ 	c #717577",
"{ 	c #546367",
"] 	c #60676F",
"^ 	c #8E8D97",
"/ 	c #7B7474",
"( 	c #1F2C37",
"_ 	c #35353F",
": 	c #626569",
"< 	c #3B525C",
"[ 	c #232323",
"} 	c #8C8387",
"| 	c #938382",
"1 	c #987867",
"2 	c #B1B1B2",
"3 	c #65514C",
"4 	c #2C292C",
"5 	c #2B4854",
"6 	c #2C3B41",
"7 	c #31262B",
"8 	c #975F52",
"9 	c #CA9781",
"0 	c #A8927C",
"a 	c #E1A686",
"b 	c #C47B65",
"c 	c #B16952",
"d 	c #754F44",
"e 	c #161418",
"f 	c #683D37",
"g 	c #E6AD92",
"h 	c #BDA88A",
"i 	c #E59F81",
"j 	c #F39574",
"k 	c #BB6A4E",
"l 	c #6C514D",
"m 	c #DAA888",
"n 	c #CBA885",
"o 	c #DD967C",
"p 	c #F49D79",
"q 	c #AD6E50",
"r 	c #DEAE94",
"s 	c #D5A583",
"t 	c #AE6650",
"u 	c #EFA27A",
"v 	c #A3694E",
"w 	c #BC8975",
"x 	c #E1AE8B",
"y 	c #E7BCA3",
"z 	c #D8976D",
"A 	c #956554",
"B 	c #3E4546",
"C 	c #55585C",
"D 	c #8E6057",
"E 	c #D79D83",
"F 	c #AD7A64",
"G 	c #D1815D",
"H 	c #563B33",
"I 	c #373D3C",
"J 	c #3A3B3C",
"K 	c #46474C",
"L 	c #313035",
"M 	c #575F61",
"N 	c #686E7C",
"O 	c #766963",
"P 	c #EBB697",
"Q 	c #F5C29F",
"R 	c #BB7565",
"S 	c #494B50",
"T 	c #434548",
"U 	c #332D32",
"V 	c #3D4144",
"W 	c #37383C",
"X 	c #46484A",
"Y 	c #595D61",
"Z 	c #525459",
"` 	c #35363C",
" .	c #898E91",
"..	c #545B5C",
"+.	c #BCC1C0",
"@.	c #B49389",
"#.	c #F7B67C",
"$.	c #A18E89",
"%.	c #75898D",
"&.	c #595C63",
"*.	c #45474E",
"=.	c #2D3037",
"-.	c #3B4046",
";.	c #3C464B",
">.	c #4E5153",
",.	c #5F6166",
"'.	c #898D91",
").	c #5C5F64",
"!.	c #6E7375",
"~.	c #3F4746",
"{.	c #B1BCBD",
"].	c #80746F",
"^.	c #8F524C",
"/.	c #CCCEC9",
"(.	c #73747E",
"_.	c #54575E",
":.	c #43464D",
"<.	c #52555B",
"[.	c #4B5257",
"}.	c #3B454A",
"|.	c #676C70",
"1.	c #56585E",
"2.	c #82858B",
"3.	c #5E6166",
"4.	c #45494C",
"5.	c #6D7575",
"6.	c #4B5558",
"7.	c #8A98AA",
"8.	c #1A3360",
"9.	c #677475",
"0.	c #696F73",
"a.	c #4A4D53",
"b.	c #3B3E46",
"c.	c #676B71",
"d.	c #444B50",
"e.	c #343D42",
"f.	c #5B6064",
"          . + @ #               ",
"            $ % &               ",
"          * = - ; >             ",
"          , ' ) ! ~             ",
"        { ] ^ / ( _ :           ",
"      < [ } | 1 2 3 4 5 6       ",
"      7 8 9 0 a b c d e         ",
"        f g h i j k l           ",
"          m n o p q             ",
"          r s t u v             ",
"          w x y z A             ",
"      B C D E F G H I           ",
"J K L M N O P Q R S T U V W X   ",
"Y Z `  ...+.@.#.$.%.&.*.=.-.;.>.",
",.'.).!.~.{.].^./.(._.:.<.[.}.|.",
"1.2.3.4.5.6.7.8.9.0.a.b.c.d.e.f."};
