/* XPM */
static char * refresh_xpm[] = {
"23 20 86 1",
" 	c None",
".	c #4FAA44",
"+	c #48A43D",
"@	c #3F9E34",
"#	c #41A135",
"$	c #44A938",
"%	c #46B13A",
"&	c #64C258",
"*	c #7DCF72",
"=	c #93D88A",
"-	c #409E35",
";	c #409F35",
">	c #43A737",
",	c #47AF3A",
"'	c #48B63B",
")	c #4EBE40",
"!	c #66C75A",
"~	c #83D179",
"{	c #85D27A",
"]	c #74CD69",
"^	c #42A537",
"/	c #46AD39",
"(	c #48B43C",
"_	c #4DBC3F",
":	c #52C145",
"<	c #5EC552",
"[	c #78CE6E",
"}	c #6DCA61",
"|	c #73CC67",
"1	c #42A437",
"2	c #45AB38",
"3	c #48B23B",
"4	c #4CBB3E",
"5	c #52C044",
"6	c #58C34C",
"7	c #5FC553",
"8	c #67C85B",
"9	c #72CC66",
"0	c #47B13B",
"a	c #4BB93E",
"b	c #50BF42",
"c	c #56C24A",
"d	c #5FC552",
"e	c #6FCB63",
"f	c #49B63D",
"g	c #4EBE41",
"h	c #55C248",
"i	c #5DC450",
"j	c #65C759",
"k	c #6CCA60",
"l	c #49B53C",
"m	c #4DBD3F",
"n	c #54C147",
"o	c #5BC34F",
"p	c #63C757",
"q	c #6AC95E",
"r	c #46AC38",
"s	c #48B33C",
"t	c #4CBB3F",
"u	c #59C34D",
"v	c #61C655",
"w	c #68C85C",
"x	c #42A336",
"y	c #44AA38",
"z	c #4AB93E",
"A	c #50C043",
"B	c #57C24A",
"C	c #60C553",
"D	c #67C75B",
"E	c #91D788",
"F	c #8CD583",
"G	c #89D47F",
"H	c #88D47F",
"I	c #81D178",
"J	c #77CD6C",
"K	c #73CC69",
"L	c #5EC652",
"M	c #60C654",
"N	c #53C247",
"O	c #54C247",
"P	c #4AB93D",
"Q	c #45AD39",
"R	c #41A136",
"S	c #40A035",
"T	c #409F34",
"U	c #3F9F34",
"      .+@#$%&*    =    ",
"       @-;>,')!~ {]    ",
"         @^/(_:<[}|    ",
"          123456789    ",
"            0abcd!e    ",
"             fghijk    ",
"             lmnopq    ",
"            rst:uvw    ",
"           xy3zABCD    ",
"                       ",
"                       ",
"    EFGHHIJK           ",
"    L<<<<<M            ",
"    NOOONn             ",
"    aaaaaP             ",
"    //////Q            ",
"    RRRRRRRS           ",
"    @@@@@@@@-;         ",
"    ;T ;;;;;;;;        ",
"    ;    ;;;;;TU;      "};
