/* XPM */
static char * refresh_xpm[] = {
"16 16 38 1",
" 	c None",
".	c #49BD3F",
"+	c #4ABF40",
"@	c #56C34C",
"#	c #6FCC67",
"$	c #3D9D34",
"%	c #3D9F35",
"&	c #42AB38",
"*	c #45B23B",
"=	c #54C24B",
"-	c #7BD073",
";	c #40A637",
">	c #45B33C",
",	c #51C148",
"'	c #6ACA61",
")	c #44B03B",
"!	c #48B93E",
"~	c #5DC654",
"{	c #67C95E",
"]	c #47B83D",
"^	c #50C146",
"/	c #5AC450",
"(	c #64C85B",
"_	c #46B53C",
":	c #4CBF41",
"<	c #57C34E",
"[	c #62C759",
"}	c #79CF71",
"|	c #3FA537",
"1	c #3FA336",
"2	c #4DC043",
"3	c #49BE3F",
"4	c #A4A4A4",
"5	c #A4A4A3",
"6	c #A8A5A4",
"7	c #A9A5A4",
"8	c #A5A4A4",
"9	c #A3A3A4",
"     .+@#       ",
"    $$%&*=  -   ",
"      $;>+,#'   ",
"        )!,~{   ",
"         ]^/(   ",
"         _:<[   ",
"        ;>:<[   ",
"                ",
"   }}}}}        ",
"   @@@@         ",
"   !!!]         ",
"   |||||        ",
"   %%%%%%%      ",
"   %  %%%%%1    ",
"       2_*3     ",
"   4444567894   "};
