/* XPM */
static char * refresh_xpm[] = {
"16 16 49 1",
" 	c None",
".	c #418EB0",
"+	c #428FB0",
"@	c #4B98B9",
"#	c #5FA8C8",
"$	c #27799E",
"%	c #297B9F",
"&	c #3082A7",
"*	c #3687AE",
"=	c #4897BD",
"-	c #65B1D9",
";	c #2E80A4",
">	c #3688AD",
",	c #3E8FB6",
"'	c #4495BE",
")	c #5DA9D0",
"!	c #54A5D0",
"~	c #3486AB",
"{	c #3C8DB4",
"]	c #4495BC",
"^	c #4C9CC6",
"/	c #54A4CF",
"(	c #3A8BB2",
"_	c #4293BB",
":	c #4A9AC3",
"<	c #52A2CD",
"[	c #388AAF",
"}	c #4091B9",
"|	c #4899C1",
"1	c #50A0CB",
"2	c #2E80A5",
"3	c #3688AE",
"4	c #63AFD6",
"5	c #4798BF",
"6	c #3B8CB2",
"7	c #2D7FA4",
"8	c #287A9E",
"9	c #287A9F",
"0	c #2B7DA0",
"a	c #5C8CA1",
"b	c #4885A0",
"c	c #46849F",
"d	c #578AA0",
"e	c #A4A4A4",
"f	c #A4A4A3",
"g	c #A8A5A4",
"h	c #A9A5A4",
"i	c #A5A4A4",
"j	c #A3A3A4",
"     .+@#       ",
"    $$%&*=  -   ",
"      $;>,')!   ",
"        ~{]^/   ",
"         (_:<   ",
"         [}|1   ",
"        23}|1   ",
"                ",
"   44444        ",
"   5555         ",
"   666(         ",
"   77777        ",
"   888888%      ",
"   8  89%%80    ",
"       abcd     ",
"   eeeefghije   "};
